<svg width="24" height="24" viewBox="0 0 24 24" fill="none" xmlns="http://www.w3.org/2000/svg">
  <g clip-path="url(#clip0_514_2)">
    <path d="M11.5311 2.70803C11.6922 2.27272 12.3078 2.27272 12.4689 2.70802L14.6126 8.50119C14.7645 8.91177 15.0882 9.23548 15.4988 9.38741L21.292 11.5311C21.7273 11.6922 21.7273 12.3078 21.292 12.4689L15.4988 14.6126C15.0882 14.7645 14.7645 15.0882 14.6126 15.4988L12.4689 21.292C12.3078 21.7273 11.6922 21.7273 11.5311 21.292L9.38741 15.4988C9.23548 15.0882 8.91177 14.7645 8.50119 14.6126L2.70803 12.4689L2.53451 12.9379L2.70802 12.4689C2.27272 12.3078 2.27272 11.6922 2.70802 11.5311L8.50119 9.38741C8.91177 9.23548 9.23548 8.91177 9.38741 8.50119L11.5311 2.70803Z"
          stroke="#3B76F6" />
    <path d="M10.2174 10.6153C10.1011 10.3623 10.3623 10.101 10.6153 10.2174L11.8747 10.7965C11.9542 10.8331 12.0458 10.8331 12.1254 10.7965L13.3847 10.2174C13.6378 10.101 13.899 10.3623 13.7826 10.6153L13.2036 11.8747C13.167 11.9542 13.167 12.0458 13.2036 12.1253L13.7826 13.3847C13.899 13.6377 13.6378 13.899 13.3847 13.7826L12.1254 13.2035C12.0458 13.1669 11.9542 13.1669 11.8747 13.2035L10.6153 13.7826C10.3623 13.899 10.1011 13.6377 10.2174 13.3847L10.7965 12.1253C10.8331 12.0458 10.8331 11.9542 10.7965 11.8747L10.2174 10.6153Z"
          fill="#609AFA" />
    <circle cx="18" cy="6" r="1.6" stroke="#2570EB" stroke-width="0.8" />
  </g>
  <defs>
    <clipPath id="clip0_514_2">
      <rect width="24" height="24" fill="white" />
    </clipPath>
  </defs>
</svg>